<svg width="512" height="512" viewBox="0 0 512 512" fill="none" xmlns="http://www.w3.org/2000/svg">
<path d="M436.678 159C443.832 159 449.632 164.01 449.632 170.189V237.328C449.632 243.315 444.189 248.203 437.345 248.503L436.678 248.518H358.953C351.799 248.517 346 243.508 346 237.328C346 231.148 351.799 226.138 358.953 226.138H405.401L355.159 182.738C350.1 178.368 350.1 171.283 355.159 166.913C360.218 162.543 368.421 162.543 373.479 166.913L423.724 210.314V170.189C423.724 164.01 429.523 159 436.678 159Z" fill="#A8CF96"/>
<path d="M436.975 266.482C444.129 266.482 449.929 271.492 449.929 277.672C449.929 283.852 444.129 288.862 436.975 288.862H390.525L440.769 332.264C445.827 336.634 445.827 343.718 440.769 348.088C435.71 352.458 427.508 352.458 422.449 348.088L372.204 304.686V344.811C372.204 350.99 366.404 356 359.25 356C352.096 356 346.297 350.99 346.297 344.811V277.672C346.297 271.492 352.096 266.483 359.25 266.482H436.975Z" fill="#FFA47A"/>
<path d="M66.8889 345.689C63.0843 345.689 60 342.604 60 338.8V178.977C60 175.172 63.0843 172.088 66.8889 172.088H85.8472C89.6519 172.088 92.7361 175.172 92.7361 178.977V309.04C92.7361 312.844 95.8204 315.928 99.6251 315.928H165.208C169.012 315.928 172.096 319.013 172.096 322.817V338.8C172.096 342.604 169.012 345.689 165.208 345.689H66.8889Z" fill="#121213"/>
<path d="M185.931 345.689C182.127 345.689 179.042 342.604 179.042 338.8V323.809C179.042 320.005 182.127 316.92 185.931 316.92H194.97C198.774 316.92 201.859 313.836 201.859 310.032V207.745C201.859 203.94 198.774 200.856 194.97 200.856H185.931C182.127 200.856 179.042 197.772 179.042 193.967V178.977C179.042 175.172 182.127 172.088 185.931 172.088H268.323C278.904 172.088 288.08 173.907 295.851 177.544C303.787 181.016 309.904 186.059 314.203 192.672C318.667 199.12 320.899 206.891 320.899 215.984V218.464C320.899 226.4 319.411 232.931 316.435 238.056C313.459 243.016 309.904 246.901 305.771 249.712C302.545 251.863 299.429 253.522 296.421 254.689C295.209 255.159 294.363 256.299 294.363 257.6C294.363 258.946 295.269 260.114 296.537 260.567C299.566 261.651 302.81 263.324 306.267 265.584C310.566 268.23 314.203 272.115 317.179 277.24C320.32 282.366 321.891 289.062 321.891 297.328V299.808C321.891 309.398 319.659 317.664 315.195 324.609C310.731 331.387 304.531 336.595 296.595 340.233C288.824 343.87 279.731 345.689 269.315 345.689H185.931ZM234.595 309.04C234.595 312.844 237.679 315.928 241.484 315.928H265.347C272.456 315.928 278.16 314.192 282.459 310.72C286.923 307.248 289.155 302.288 289.155 295.84V293.36C289.155 286.912 287.006 281.952 282.707 278.48C278.408 275.008 272.622 273.272 265.347 273.272H241.484C237.679 273.272 234.595 276.357 234.595 280.161V309.04ZM234.595 236.623C234.595 240.428 237.679 243.512 241.484 243.512H264.851C271.63 243.512 277.168 241.776 281.467 238.304C285.931 234.832 288.163 230.037 288.163 223.92V221.44C288.163 215.157 286.014 210.363 281.715 207.056C277.416 203.584 271.795 201.848 264.851 201.848H241.484C237.679 201.848 234.595 204.932 234.595 208.737V236.623Z" fill="#121213"/>
</svg>
