<?xml version="1.0" encoding="UTF-8"?>
<svg id="_Шар_2" data-name="Шар 2" xmlns="http://www.w3.org/2000/svg" viewBox="0 0 1928.55 466.49" preserveAspectRatio="none">
  <defs>
    <style>
      .cls-1 {
        fill: #bfe4f8;
      }

      .cls-2 {
        fill: #fff;
      }
    </style>
  </defs>
  <g id="Layer_1" data-name="Layer 1">
    <g>
      <path class="cls-1" d="M1524.4,260.73c28.63,3.58,55.15,16.2,81.08,28.65,44.5,21.36,92.78,53.08,79.7,109.48,8.17-2.84,9.26-13.56,8.92-22.05,0-8.29-1.05-16.43-2.02-24.64-.47-3.97-.96-8-2.51-11.7-1.39-3.32-3.6-6.25-5.01-9.56-4.67-10.96,10.26-20.05,18.28-11.61,2.85,3,3.72,7.29,4.36,11.35,2.55,16.15.58,32.43,2.53,48.38,2.63,21.53,11.42,2.35,11.4-10-.02-14.64-12.78-46.73-5.38-59.27,2.43-4.12,7.88-5.66,12.71-5.2,4.83.46,9.34,2.48,13.97,3.9,40.11,12.25,80.37-28.92,109.39-60.64-41.37,13.88-88.48,12.03-127.27-8.03-15.42-7.97-31.73-18.84-48.71-14.97-14.09,3.21-23.75,15.7-36.34,22.68-43.19,23.96-92.56-23.09-142.13-25.44-52.28-2.48-93.81,44.9-145.39,53.65-76.46,12.96-145.19-61.16-222.54-55.05-35.73,2.82-67.93,22.65-103.32,28.24-77.92,12.3-151.68-45.58-230.57-43.08-45.78,1.45-88.76,23.22-134.44,26.45-42.98,3.04-85.19-10.45-127.95-15.72-76.24-9.4-155.66,8.33-220.24,49.16-23.35,14.76-46.66,33.08-74.41,34.33-19.99.9-39.09-7.37-57.33-15.46-57.27-25.41-114.55-50.82-171.82-76.23,8.38,15.21,21.27,28.55,34.08,40.75,24.43,23.25,50.1,45.24,76.87,65.85,24.14,18.59,50.84,36.7,81.41,39.34,48.96,4.24,90.71-31.17,133.84-54.3,73.6-39.47,165.45-44.49,243.06-13.27,18.11,7.28,35.8,16.51,55.19,19.12,59.21,7.96,118.66-46.94,174.08-25.01,10.54,4.17,19.98,10.96,30.92,14,31.07,8.65,62.17-14.79,94.46-15.18,33.84-.41,63.4,25.39,77.33,55.63,13.94,30.25,15.45,64.37,16.75,97.54,18.18-8.08,11.87-34.47,4.04-52.47-7.83-18-8.53-46.7,11.27-49.07,25.81-3.1,26.85,35.54,29.6,51.44,3.48,20.14,7.93,40.02,12.22,60,.62,2.88.79,20.29,2.33,21.92,10.15,10.7,6.79-28.39,6.14-31.06-2.57-10.67-7.08-20.86-8.94-31.67-3.5-20.33-8.92-48.68-5.32-69.13,1.52-8.68,7.79-18.89,16.58-17.09,17.12,3.5,6.77,41.59,24.2,40.18-17.46-20.94-5.53-58.01,21.02-65.33,28.58-7.88,55.46,14.52,83,25.38,96.77,38.15,197.42-68.11,300.87-55.18Z"/>
      <path class="cls-2" d="M238.52,300.05c27.75-1.25,51.07-19.57,74.41-34.33,64.58-40.84,144-58.56,220.24-49.16,42.76,5.27,84.96,18.76,127.95,15.72,45.69-3.23,88.66-25,134.44-26.45,78.88-2.49,152.65,55.38,230.57,43.08,35.39-5.59,67.59-25.42,103.32-28.24,77.35-6.11,146.07,68.01,222.54,55.05,51.58-8.74,93.1-56.12,145.39-53.65,49.57,2.35,98.93,49.4,142.13,25.44,12.59-6.98,22.25-19.47,36.34-22.68,16.98-3.87,33.29,6.99,48.71,14.97,38.78,20.05,85.9,21.91,127.27,8.03,6.06-6.62,11.63-12.83,16.6-18.05,21.17-22.22,42.84-45.23,53.78-73.69,10.94-28.46,8.61-64.05-13.89-84.98-21.5-20.01-54.74-21.53-84-16.87-29.26,4.66-58.17,14.32-87.74,12.39-36.61-2.39-70.15-22.35-106.73-25.22-36.19-2.84-72.39,11.29-108.4,6.68-28.3-3.62-54.36-18.62-82.85-20.32-37.41-2.22-72.6,18.73-110.05,20.22-31.29,1.24-61.96-11.2-93.23-9.56-29.99,1.57-57.48,15.84-85.68,25.96-45.43,16.29-94.74,21.55-142.75,16.26-43.96-4.84-83.92-25.82-127.71-29.46-36.98-3.07-72.15.32-108.73-9.55C722.2,28.64,677.98-1.19,626.35.04c-69.93,1.66-123.4,59.98-187.96,86.36-10.55,4.31-22.17,7.82-33.29,5.23-12.22-2.84-21.39-12.38-31.31-19.93-37.3-28.4-94.03-28.92-131.87-1.21-14.26,10.44-26.15,24.44-42.49,31.35-30.06,12.7-64.01-2.22-96.62-5.02C51.42,92.4-6.41,132.74.58,182.87c1.26,9.07,4.42,17.53,8.8,25.49,57.27,25.41,114.55,50.82,171.82,76.23,18.24,8.09,37.34,16.35,57.33,15.46Z"/>
    </g>
  </g>
</svg>