су<?xml version="1.0" encoding="UTF-8"?>
<svg width="22" height="22" viewBox="0 0 22 22" xmlns="http://www.w3.org/2000/svg">
  <!-- LB monochrome icon for macOS tray -->
  <!-- L -->
  <path d="M 3 4 L 3 15 Q 3 18 6 18 L 9 18 L 9 15 L 6 15 Q 5 15 5 14 L 5 4 Z" fill="black"/>
  <!-- B -->
  <path d="M 11 4 L 11 18 L 15 18 Q 19 18 19 15 Q 19 13 17 12.5 Q 18 12 18 10 Q 18 7 15 7 L 13 7 L 13 4 Z M 13 9 L 15 9 Q 16 9 16 10 Q 16 11 15 11 L 13 11 Z M 13 13 L 15 13 Q 16 13 16 14.5 Q 16 16 15 16 L 13 16 Z" fill="black"/>
</svg>