<svg width="159" height="160" viewBox="0 0 159 160" fill="none" xmlns="http://www.w3.org/2000/svg">
<path d="M0.186401 139.402C0.186401 150.336 7.84314 159.2 17.2882 159.2C26.7332 159.2 34.39 150.336 34.39 139.402V20.6125C34.39 9.67829 26.7332 0.814316 17.2882 0.814316C7.84314 0.814316 0.186401 9.67828 0.186401 20.6125L0.186401 139.402Z" fill="#FFA47A"/>
<path d="M47.1774 27.3195C38.6847 19.2998 27.4087 19.07 21.9918 26.8061C16.5749 34.5423 19.0683 47.3148 27.5611 55.3345L119.826 142.46C128.319 150.479 139.595 150.709 145.012 142.973C150.429 135.237 147.935 122.464 139.442 114.445L47.1774 27.3195Z" fill="#FFA47A"/>
<path d="M138.591 34.2C149.526 34.2 158.39 26.5441 158.39 17.1C158.39 7.65593 149.526 -3.8147e-06 138.591 -3.8147e-06H19.7988C8.86423 -3.8147e-06 1.52588e-05 7.65593 1.52588e-05 17.1C1.52588e-05 26.5441 8.86421 34.2 19.7988 34.2H79.195H138.591Z" fill="#FFA47A"/>
</svg>
