<svg width="159" height="160" viewBox="0 0 159 160" fill="none" xmlns="http://www.w3.org/2000/svg">
<path d="M158.204 19.7982C158.204 8.86398 150.547 0 141.102 0C131.657 0 124 8.86396 124 19.7982V138.587C124 149.522 131.657 158.386 141.102 158.386C150.547 158.386 158.204 149.522 158.204 138.587V19.7982Z" fill="#A8CF96"/>
<path d="M111.213 131.881C119.705 139.9 130.981 140.13 136.398 132.394C141.815 124.658 139.322 111.885 130.829 103.866L38.5639 16.7404C30.0712 8.72077 18.7952 8.49093 13.3783 16.227C7.96138 23.9632 10.4548 36.7357 18.9476 44.7554L111.213 131.881Z" fill="#A8CF96"/>
<path d="M19.7988 125C8.86422 125 0 132.656 0 142.1C0 151.544 8.8642 159.2 19.7987 159.2H138.591C149.526 159.2 158.39 151.544 158.39 142.1C158.39 132.656 149.526 125 138.591 125H79.195H19.7988Z" fill="#A8CF96"/>
</svg>
