<svg width="158" height="160" viewBox="0 0 158 160" fill="none" xmlns="http://www.w3.org/2000/svg">
<path d="M8.6745 159.2C3.88371 159.2 0 155.316 0 150.525V141.493C0 136.702 3.88371 132.818 8.6745 132.818H16.5616C21.3524 132.818 25.2361 128.935 25.2361 124.144V35.0562C25.2361 30.2654 21.3524 26.3817 16.5616 26.3817H8.67451C3.88371 26.3817 0 22.498 0 17.7072V8.6745C0 3.88371 3.88371 0 8.6745 0H98.75C110.454 0 120.603 1.66781 129.198 5.00343C137.976 8.18744 144.742 12.8118 149.497 18.8766C154.434 24.7897 156.903 31.9158 156.903 40.2549V42.5291C156.903 49.8069 155.257 55.7958 151.965 60.496C148.674 65.0446 144.742 68.6076 140.17 71.1851C136.478 73.2258 132.916 74.7837 129.482 75.8588C128.352 76.2127 127.552 77.2411 127.552 78.4254C127.552 79.6443 128.399 80.6923 129.57 81.0273C133.031 82.0166 136.748 83.5877 140.719 85.7406C145.473 88.1665 149.497 91.7295 152.788 96.4297C156.263 101.13 158 107.27 158 114.851V117.126C158 125.92 155.531 133.501 150.594 139.869C145.656 146.085 138.799 150.861 130.021 154.197C121.426 157.532 111.368 159.2 99.8472 159.2H8.6745ZM61.4444 123.234C61.4444 128.025 65.3281 131.909 70.1189 131.909H95.4583C103.322 131.909 109.631 130.317 114.385 127.133C119.323 123.949 121.792 119.4 121.792 113.487V111.213C121.792 105.299 119.414 100.751 114.66 97.5669C109.905 94.3829 103.505 92.7909 95.4583 92.7909H70.1189C65.3281 92.7909 61.4444 96.6746 61.4444 101.465V123.234ZM61.4444 56.8249C61.4444 61.6157 65.3281 65.4994 70.1189 65.4994H94.9097C102.407 65.4994 108.534 63.9074 113.288 60.7234C118.226 57.5394 120.694 53.1425 120.694 47.5326V45.2583C120.694 39.4968 118.317 35.0998 113.562 32.0674C108.808 28.8834 102.59 27.2914 94.9097 27.2914H70.1189C65.3281 27.2914 61.4444 31.1751 61.4444 35.9659V56.8249Z" fill="white"/>
</svg>
